<svg width="1600" height="1200" viewBox="0 0 1600 1200" fill="none" xmlns="http://www.w3.org/2000/svg">
  <rect width="1600" height="1200" fill="#07141A"/>
  <rect width="1600" height="1200" fill="url(#paint0_linear_4_2)"/>
  <circle cx="1276" cy="238" r="202" fill="#FFD166" fill-opacity="0.12"/>
  <circle cx="258" cy="972" r="246" fill="#3BC0A2" fill-opacity="0.14"/>
  <rect x="156" y="164" width="1288" height="872" rx="44" fill="#102E39" fill-opacity="0.76" stroke="#AADFD0" stroke-opacity="0.2" stroke-width="4"/>
  <rect x="230" y="250" width="1142" height="696" rx="28" fill="#08141A" fill-opacity="0.28"/>
  <rect x="298" y="318" width="1006" height="560" rx="24" fill="#F4F8F5" fill-opacity="0.04"/>
  <rect x="360" y="392" width="300" height="164" rx="20" fill="#F4F8F5" fill-opacity="0.06"/>
  <rect x="706" y="392" width="540" height="164" rx="20" fill="#F4F8F5" fill-opacity="0.06"/>
  <rect x="360" y="610" width="886" height="176" rx="20" fill="#F4F8F5" fill-opacity="0.06"/>
  <path d="M1162 432C1162 432 1195 444 1208 466C1221 488 1214 520 1214 520" stroke="#FF7C70" stroke-width="12" stroke-linecap="round"/>
  <path d="M1136 460C1136 460 1169 472 1182 494C1195 516 1188 548 1188 548" stroke="#FF7C70" stroke-opacity="0.72" stroke-width="12" stroke-linecap="round"/>
  <circle cx="1040" cy="480" r="34" fill="#FFD166"/>
  <path d="M1004 444L1076 516" stroke="#0C1A20" stroke-width="12" stroke-linecap="round"/>
  <path d="M1076 444L1004 516" stroke="#0C1A20" stroke-width="12" stroke-linecap="round"/>
  <text x="264" y="922" fill="#F3FBF8" font-family="Arial, sans-serif" font-size="64" font-weight="700">Use official updates, not rumors</text>
  <text x="264" y="988" fill="#C5D8D5" font-family="Arial, sans-serif" font-size="34">Placeholder scene: remote work and conflicting messages</text>
  <defs>
    <linearGradient id="paint0_linear_4_2" x1="178" y1="122" x2="1460" y2="1084" gradientUnits="userSpaceOnUse">
      <stop stop-color="#10313D"/>
      <stop offset="1" stop-color="#1C515B"/>
    </linearGradient>
  </defs>
</svg>
